<svg width="48" height="49" viewBox="0 -1 48 49" xmlns="http://www.w3.org/2000/svg" xmlns:xlink="http://www.w3.org/1999/xlink"><defs><path id="a" d="M0 47.2h48V0H0z"/></defs><g fill="none" fill-rule="evenodd"><path stroke="#525961" stroke-width="2" stroke-linejoin="round" d="M13.6 9.6L24 .8l10.4 8.8z"/><mask id="b" fill="#fff"><use xlink:href="#a"/></mask><path stroke="#525961" stroke-width="2" mask="url(#b)" d="M.8 46.4h46.4V9.6H.8z"/><path stroke="#525961" stroke-width="2" mask="url(#b)" d="M5.6 41.6h36.8V14.4H5.6z"/><path d="M19.998 31.636l.835-.835a4.035 4.035 0 0 1 2.853-1.183h.693c1.07 0 2.097.426 2.853 1.183l.835.835" stroke="#525961" stroke-width="2" stroke-linecap="round" stroke-linejoin="round" mask="url(#b)"/><path d="M21.599 23.983a1.009 1.009 0 1 0 0 2.018 1.009 1.009 0 0 0 0-2.018M26.402 23.983a1.009 1.009 0 1 0 0 2.018 1.009 1.009 0 0 0 0-2.018" fill="#525961" mask="url(#b)"/></g></svg>