<svg width="20" height="18" viewBox="673 636 20 18" xmlns="http://www.w3.org/2000/svg"><g fill="none" fill-rule="evenodd"><path d="M674.995 652.272l1.67-1.67c1.514-1.514 3.567-2.366 5.706-2.366h1.388c2.14 0 4.194.852 5.706 2.365l1.67 1.672" stroke="#525961" stroke-width="2" stroke-linecap="round" stroke-linejoin="round"/><path d="M678.197 636.967c-1.113 0-2.017.902-2.017 2.017 0 1.114.904 2.016 2.017 2.016 1.114 0 2.018-.902 2.018-2.016 0-1.115-.904-2.017-2.018-2.017M687.803 636.967c-1.113 0-2.017.902-2.017 2.017 0 1.114.904 2.016 2.017 2.016 1.114 0 2.018-.902 2.018-2.016 0-1.115-.903-2.017-2.017-2.017" fill="#525961"/></g></svg>
