<?xml version="1.0" encoding="UTF-8"?>
<svg width="120px" height="21px" viewBox="0 0 120 21" version="1.1" xmlns="http://www.w3.org/2000/svg" xmlns:xlink="http://www.w3.org/1999/xlink">
    <title>adminpanel</title>
    <defs>
        <path d="M40.219,8.5 L42.928,8.5 L42.928,19 L40.219,19 L40.219,17.761 C39.463,18.706 38.329,19.294 36.796,19.294 C34.003,19.294 31.693,16.879 31.693,13.75 C31.693,10.621 34.003,8.206 36.796,8.206 C38.329,8.206 39.463,8.794 40.219,9.739 L40.219,8.5 Z M37.3,16.711 C38.98,16.711 40.219,15.514 40.219,13.75 C40.219,11.986 38.98,10.789 37.3,10.789 C35.641,10.789 34.402,11.986 34.402,13.75 C34.402,15.514 35.641,16.711 37.3,16.711 Z M53.21275,4.3 L55.92175,4.3 L55.92175,19 L53.21275,19 L53.21275,17.761 C52.45675,18.727 51.34375,19.294 49.81075,19.294 C46.99675,19.294 44.68675,16.879 44.68675,13.75 C44.68675,10.621 46.99675,8.206 49.81075,8.206 C51.34375,8.206 52.45675,8.773 53.21275,9.739 L53.21275,4.3 Z M50.31475,16.711 C51.97375,16.711 53.21275,15.514 53.21275,13.75 C53.21275,11.986 51.97375,10.789 50.31475,10.789 C48.63475,10.789 47.39575,11.986 47.39575,13.75 C47.39575,15.514 48.63475,16.711 50.31475,16.711 Z M69.8815,8.206 C72.2755,8.206 73.8505,9.907 73.8505,12.532 L73.8505,19 L71.1415,19 L71.1415,12.721 C71.1415,11.482 70.5115,10.726 69.3775,10.726 C68.1805,10.726 67.4245,11.524 67.4245,13.099 L67.4245,19 L64.7155,19 L64.7155,12.721 C64.7155,11.482 64.0855,10.726 62.9515,10.726 C61.7965,10.726 60.9775,11.524 60.9775,13.099 L60.9775,19 L58.2685,19 L58.2685,8.5 L60.9775,8.5 L60.9775,9.613 C61.5655,8.731 62.5525,8.206 63.8965,8.206 C65.1985,8.206 66.1645,8.752 66.7525,9.718 C67.4035,8.773 68.4535,8.206 69.8815,8.206 Z M77.37325,7.24 C76.47025,7.24 75.71425,6.484 75.71425,5.581 C75.71425,4.678 76.47025,3.901 77.37325,3.901 C78.29725,3.901 79.05325,4.678 79.05325,5.581 C79.05325,6.484 78.29725,7.24 77.37325,7.24 Z M76.02925,19 L76.02925,8.5 L78.73825,8.5 L78.73825,19 L76.02925,19 Z M86.923,8.206 C89.149,8.206 90.892,9.76 90.892,12.553 L90.892,19 L88.183,19 L88.183,12.889 C88.183,11.461 87.322,10.726 86.104,10.726 C84.781,10.726 83.794,11.503 83.794,13.33 L83.794,19 L81.085,19 L81.085,8.5 L83.794,8.5 L83.794,9.676 C84.424,8.731 85.516,8.206 86.923,8.206 Z M104.3005,8.206 C107.1145,8.206 109.4245,10.621 109.4245,13.75 C109.4245,16.879 107.1145,19.294 104.3005,19.294 C102.7675,19.294 101.6545,18.727 100.8985,17.761 L100.8985,23.2 L98.1895,23.2 L98.1895,8.5 L100.8985,8.5 L100.8985,9.739 C101.6545,8.773 102.7675,8.206 104.3005,8.206 Z M103.7965,16.711 C105.4765,16.711 106.7155,15.514 106.7155,13.75 C106.7155,11.986 105.4765,10.789 103.7965,10.789 C102.1375,10.789 100.8985,11.986 100.8985,13.75 C100.8985,15.514 102.1375,16.711 103.7965,16.711 Z M119.18425,8.5 L121.89325,8.5 L121.89325,19 L119.18425,19 L119.18425,17.761 C118.42825,18.706 117.29425,19.294 115.76125,19.294 C112.96825,19.294 110.65825,16.879 110.65825,13.75 C110.65825,10.621 112.96825,8.206 115.76125,8.206 C117.29425,8.206 118.42825,8.794 119.18425,9.739 L119.18425,8.5 Z M116.26525,16.711 C117.94525,16.711 119.18425,15.514 119.18425,13.75 C119.18425,11.986 117.94525,10.789 116.26525,10.789 C114.60625,10.789 113.36725,11.986 113.36725,13.75 C113.36725,15.514 114.60625,16.711 116.26525,16.711 Z M130.057,8.206 C132.283,8.206 134.026,9.76 134.026,12.553 L134.026,19 L131.317,19 L131.317,12.889 C131.317,11.461 130.456,10.726 129.238,10.726 C127.915,10.726 126.928,11.503 126.928,13.33 L126.928,19 L124.219,19 L124.219,8.5 L126.928,8.5 L126.928,9.676 C127.558,8.731 128.65,8.206 130.057,8.206 Z M138.49375,14.863 C138.87175,16.249 140.02675,16.837 141.45475,16.837 C142.50475,16.837 143.34475,16.396 143.80675,15.787 L145.99075,17.047 C145.00375,18.475 143.42875,19.294 141.41275,19.294 C137.88475,19.294 135.65875,16.879 135.65875,13.75 C135.65875,10.621 137.90575,8.206 141.20275,8.206 C144.31075,8.206 146.51575,10.663 146.51575,13.75 C146.51575,14.149 146.47375,14.506 146.41075,14.863 L138.49375,14.863 Z M138.45175,12.763 L143.80675,12.763 C143.47075,11.251 142.33675,10.642 141.20275,10.642 C139.75375,10.642 138.76675,11.419 138.45175,12.763 Z M148.2745,19 L148.2745,3.67 L150.9835,3.67 L150.9835,19 L148.2745,19 Z" id="path-1"></path>
    </defs>
    <g id="1---General" stroke="none" stroke-width="1" fill="none" fill-rule="evenodd">
        <g id="7.0---CLP" transform="translate(-67.000000, -30.000000)" fill="#4A4A4A" fill-rule="nonzero">
            <g id="Top-nav" transform="translate(-22.000000, 0.000000)">
                <g id="adminpanel" transform="translate(58.000000, 27.000000)">
                    <use xlink:href="#path-1"></use>
                    <use xlink:href="#path-1"></use>
                </g>
            </g>
        </g>
    </g>
</svg>