<?xml version="1.0" encoding="UTF-8"?>
<svg width="23px" height="26px" viewBox="0 0 23 26" version="1.1" xmlns="http://www.w3.org/2000/svg" xmlns:xlink="http://www.w3.org/1999/xlink">
    <title>Group 2</title>
    <g id="1---General" stroke="none" stroke-width="1" fill="none" fill-rule="evenodd">
        <g id="7.0---CLP" transform="translate(-36.000000, -27.000000)" fill="#F05B40">
            <g id="Top-nav" transform="translate(-22.000000, 0.000000)">
                <g id="Group-2" transform="translate(58.000000, 27.000000)">
                    <path d="M22.5604284,6.24238486 L12.6086548,0.111704705 C12.3668887,-0.0372349017 11.9712777,-0.0372349017 11.7295454,0.111704705 C11.7295454,0.111704705 10.9004112,0.63906845 10.8665876,0.688895257 C9.8038644,1.32553907 9.30887753,2.70915232 10.7585954,3.52905927 C12.4892754,4.50803703 14.4463134,5.60303699 14.4463134,5.60303699 C16.9016834,6.88724901 16.6884022,7.84167391 16.6884022,9.36730438 L16.6884022,10.4500459 L10.7585954,7.04617561 C10.3458867,6.79206611 10.0111311,6.99825967 10.0111311,7.50680316 L10.0111311,9.05410216 C10.0111311,9.56297014 10.3458867,10.1812624 10.7585954,10.4353719 L13.1912249,11.9073899 C14.4349262,12.6598756 16.6884022,13.557984 16.6884022,15.0836144 L16.6884022,23.5625 L22.5604284,20.1284884 C22.8021945,19.9795488 23,19.613996 23,19.3161528 L23,7.05475649 C23,6.75687728 22.8021945,6.39132446 22.5604284,6.24238486" id="Fill-1"></path>
                    <path d="M0.439571584,19.7576151 L10.3913452,25.8882953 C10.6331113,26.0372349 11.0287223,26.0372349 11.2704546,25.8882953 C11.2704546,25.8882953 12.0995888,25.3609315 12.1334124,25.3111047 C13.1961356,24.6744609 13.6911225,23.2908477 12.2414046,22.4709407 C10.5107246,21.491963 8.5536866,20.396963 8.5536866,20.396963 C6.09831657,19.112751 6.31159783,18.1583261 6.31159783,16.6326956 L6.31159783,15.5499541 L12.2414046,18.9538244 C12.6541133,19.2079339 12.9888689,19.0017403 12.9888689,18.4931968 L12.9888689,16.9458978 C12.9888689,16.4370299 12.6541133,15.8187376 12.2414046,15.5646281 L9.80877515,14.0926101 C8.56507377,13.3401244 6.31159783,12.442016 6.31159783,10.9163856 L6.31159783,2.4375 L0.439571584,5.87151157 C0.197805523,6.02045118 0,6.38600399 0,6.68384715 L0,18.9452435 C0,19.2431227 0.197805523,19.6086755 0.439571584,19.7576151" id="Fill-3"></path>
                </g>
            </g>
        </g>
    </g>
</svg>