<svg width="32" height="32" viewBox="0 0 32 32" xmlns="http://www.w3.org/2000/svg">
  <g xmlns="http://www.w3.org/2000/svg" id="svg_1" stroke="#333" stroke-linejoin="round" stroke-linecap="round" fill-rule="evenodd" fill="none">
    <path d="m25.854154,11.733l5.174,3.594l0,14.122c0,1.113 -0.877,2.018 -1.957,2.018l-26.096,0c-1.081,0 -1.958,-0.905 -1.958,-2.018l0,-14.122l5.175,-3.594"></path>
    <path class="notification-background" d="m6.337491,0.692001l19.248457,0l0.006201,17.908751l-4.009665,3.150067l-10.912901,0.010181l-4.40443,-3.035019" fill="#FF4E36"></path>
    <path d="m4.640154,27.733l6.726,-5.866l9.313,0l6.727,5.866m3.622,-12.406l-9.314,6.54m-20.697,-6.54l9.314,6.54m15.523,-2.984l0,-18.35l-19.662,0l0,18.35"></path>
  </g>
</svg>