<svg width="32" height="32" viewBox="11 0 32 32" xmlns="http://www.w3.org/2000/svg">
    <g fill="none" fill-rule="evenodd" stroke-linecap="round" stroke-linejoin="round" stroke="#333">
        <path d="M11.533 31.467h30.934V.533H11.533zm16-12.106v-9.227m6.4 9.227v-2.827m-13.866-4.267v-7.7m0 14.794v-4.96m13.866.064V4.568M27.533 8V4.567"/>
        <path d="M31.8 16.533h4.267V14.4H31.8zm-6.4-6.4h4.267V8H25.4zM17.933 14.4H22.2v-2.133h-4.267zM31.8 25.067a2.133 2.133 0 1 1 4.267 0 2.133 2.133 0 0 1-4.267 0zm-6.4 0a2.133 2.133 0 1 1 4.267 0 2.133 2.133 0 0 1-4.267 0zm-7.467 0a2.133 2.133 0 1 1 4.267 0 2.133 2.133 0 0 1-4.267 0z"/>
    </g>
</svg>
