<svg width="33" height="32" viewBox="5 0 33 32" xmlns="http://www.w3.org/2000/svg">
    <g fill="none" fill-rule="evenodd" stroke-linejoin="round" stroke="#333">
        <path d="M18.354 20.035s-2.023-.672-2.023-4.035c-1.113 0-1.113-2.69 0-2.69 0-.45-2.022-5.38 1.349-4.707.674-2.69 8.09-2.69 8.764 0 .467 1.866-.674 4.377-.674 4.708 1.113 0 1.113 2.689 0 2.689 0 3.363-2.023 4.035-2.023 4.035v3.362c3.34 1.25 6.647 2.283 8.34 3.463A15.39 15.39 0 0 0 36.555 16C36.555 7.457 29.613.533 21.05.533S5.545 7.457 5.545 16a15.4 15.4 0 0 0 4.484 10.876c1.793-1.237 5.328-2.35 8.325-3.479v-3.362z"/>
        <path d="M10.028 26.876a15.476 15.476 0 0 0 11.023 4.591c4.32 0 8.224-1.764 11.036-4.607"/>
    </g>
</svg>
