<svg width="33px" height="32px" viewBox="5 0 33 32" version="1.1" xmlns="http://www.w3.org/2000/svg" xmlns:xlink="http://www.w3.org/1999/xlink">
    <!-- Generator: Sketch 3.8.3 (29802) - http://www.bohemiancoding.com/sketch -->
    <desc>Created with Sketch.</desc>
    <defs></defs>
    <g id="Icon_profile" stroke="none" stroke-width="1" fill="none" fill-rule="evenodd" transform="translate(5.000000, 0.000000)" stroke-linejoin="round">
        <path d="M13.3543427,20.03488 C13.3543427,20.03488 11.331164,19.36288 11.331164,15.99968 C10.217988,15.99968 10.217988,13.3106133 11.331164,13.3106133 C11.331164,12.8594133 9.30905467,7.93034667 12.6795933,8.60341333 C13.3543427,5.91328 20.7701693,5.91328 21.4438493,8.60341333 C21.911148,10.4690133 20.7701693,12.9799467 20.7701693,13.3106133 C21.8833453,13.3106133 21.8833453,15.99968 20.7701693,15.99968 C20.7701693,19.36288 18.7469907,20.03488 18.7469907,20.03488 L18.7469907,23.3970133 C22.087588,24.64608 25.3939667,25.67968 27.0867213,26.86048 C29.8498787,24.0679467 31.5554653,20.23328 31.5554653,15.99968 C31.5554653,7.45674667 24.6133533,0.533013333 16.050132,0.533013333 C7.48691067,0.533013333 0.544798667,7.45674667 0.544798667,15.99968 C0.544798667,20.2407467 2.25787067,24.0818133 5.02851333,26.87648 C6.82178533,25.6391467 10.3570013,24.5266133 13.3543427,23.3970133 L13.3543427,20.03488 L13.3543427,20.03488 Z" id="Stroke-1" stroke="#333333"></path>
        <path d="M5.0284064,26.8760533 C7.83968373,29.7101867 11.7384731,31.4669867 16.0510944,31.4669867 C20.3701317,31.4669867 24.2753371,29.70272 27.0866144,26.8600533" id="Stroke-3" stroke="#333333"></path>
    </g>
</svg>
