<svg width="32px" height="32px" viewBox="11 0 32 32" version="1.1" xmlns="http://www.w3.org/2000/svg" xmlns:xlink="http://www.w3.org/1999/xlink">
    <!-- Generator: Sketch 3.8.3 (29802) - http://www.bohemiancoding.com/sketch -->
    <desc>Created with Sketch.</desc>
    <defs></defs>
    <g id="Icon_Settings" stroke="none" stroke-width="1" fill="none" fill-rule="evenodd" transform="translate(11.000000, 0.000000)" stroke-linecap="round" stroke-linejoin="round">
        <polygon id="Stroke-1" stroke="#333333" points="0.533333333 31.4666667 31.4666667 31.4666667 31.4666667 0.533333333 0.533333333 0.533333333"></polygon>
        <path d="M16.5333333,19.3613867 L16.5333333,10.1336533" id="Stroke-3" stroke="#333333"></path>
        <path d="M22.9333333,19.3613867 L22.9333333,16.5336533" id="Stroke-4" stroke="#333333"></path>
        <path d="M9.06666667,12.2666667 L9.06666667,4.56746667" id="Stroke-5" stroke="#333333"></path>
        <path d="M9.06666667,19.3613867 L9.06666667,14.40032" id="Stroke-6" stroke="#333333"></path>
        <path d="M22.9333333,14.4645333 L22.9333333,4.568" id="Stroke-7" stroke="#333333"></path>
        <path d="M16.5333333,8 L16.5333333,4.56746667" id="Stroke-8" stroke="#333333"></path>
        <polygon id="Stroke-9" stroke="#333333" points="20.8 16.5333333 25.0666667 16.5333333 25.0666667 14.4 20.8 14.4"></polygon>
        <polygon id="Stroke-10" stroke="#333333" points="14.4 10.1333333 18.6666667 10.1333333 18.6666667 8 14.4 8"></polygon>
        <polygon id="Stroke-11" stroke="#333333" points="6.93333333 14.4 11.2 14.4 11.2 12.2666667 6.93333333 12.2666667"></polygon>
        <path d="M20.8,25.0666667 C20.8,23.888 21.7557333,22.9333333 22.9333333,22.9333333 C24.1109333,22.9333333 25.0666667,23.888 25.0666667,25.0666667 C25.0666667,26.2453333 24.1109333,27.2 22.9333333,27.2 C21.7557333,27.2 20.8,26.2453333 20.8,25.0666667 L20.8,25.0666667 Z" id="Stroke-12" stroke="#333333"></path>
        <path d="M14.4,25.0666667 C14.4,23.888 15.3557333,22.9333333 16.5333333,22.9333333 C17.7109333,22.9333333 18.6666667,23.888 18.6666667,25.0666667 C18.6666667,26.2453333 17.7109333,27.2 16.5333333,27.2 C15.3557333,27.2 14.4,26.2453333 14.4,25.0666667 L14.4,25.0666667 Z" id="Stroke-14" stroke="#333333"></path>
        <path d="M6.93333333,25.0666667 C6.93333333,23.888 7.88906667,22.9333333 9.06666667,22.9333333 C10.2442667,22.9333333 11.2,23.888 11.2,25.0666667 C11.2,26.2453333 10.2442667,27.2 9.06666667,27.2 C7.88906667,27.2 6.93333333,26.2453333 6.93333333,25.0666667 L6.93333333,25.0666667 Z" id="Stroke-16" stroke="#333333"></path>
    </g>
</svg>